<svg xmlns="http://www.w3.org/2000/svg" version="1.1" xmlns:xlink="http://www.w3.org/1999/xlink" xmlns:svgjs="http://svgjs.dev/svgjs" width="512" height="512"><svg id="SvgjsSvg1001" xmlns="http://www.w3.org/2000/svg" version="1.1" viewBox="0 0 512 512">
  <!-- Generator: Adobe Illustrator 29.1.0, SVG Export Plug-In . SVG Version: 2.1.0 Build 142)  -->
  <defs>
    <style>
      .st0 {
        fill: #7a4bbf;
      }

      .st1 {
        fill: #9366d5;
      }

      .st2 {
        fill: #472479;
      }

      .st3 {
        fill: #552d90;
      }

      .st4 {
        fill: #fefefe;
      }

      .st5 {
        fill: #6537a9;
      }
    </style>
  </defs>
  <path class="st0" d="M498.8,166.4c3.3,16.5-5.6,28.7-18.1,38.4s-12.7,7.9-18.1,11.7c-40.6,28.2-82.5,54.8-123.8,82.1h-170.7c-43.2-28.5-87.5-56.6-130.2-86.3-3.7-2.6-11-6.1-12.8-7.5s0-1.9-1-2.7c-6.8-5.3-7.6-5.8-11.8-13.3,6.9-4.7,18.4-1.2,26.1-1.3,50.4-.3,100.6-2,151,.2,29.7,15.8,57.1,41.2,86.1,57.4,1.4.8,3.4,2.3,5,2.1,18.6-13.1,39.6-24.7,57.6-38.3,11.9-9,28.1-24.6,21-41.4l139.8-1.1Z"></path>
  <path class="st2" d="M418.8,369c-30.6,20.7-61.2,41.6-92.1,62-15,9.9-28.3,22.2-45.8,27.8-22.8,7.3-48.9,5.1-69.8-6.5-31.3-17.4-67.5-44.7-97.9-65.2s-15.4-11.9-23-17c16.3-5.5,34.4-.1,51.2-2.1-1.2-2.4.3-6.6-.5-8.5s-10.4-10.7-12.3-12.3c-27.1-24.5-60.2-45-88.6-68.2l-2.1-4.8c39.8,27.6,80.2,54.2,120.6,81,23.2,15.4,50.3,39.2,77.8,44.3,48.5,8.9,74.6-20.1,111-44.3,42.2-28,85.6-55,127-84.2.5,3.5-3.5,5.4-5.9,7.4-20.2,16.7-43.3,31.6-63.9,48-6.1,4.9-33,25.9-35.2,30.9s-1.6,7.5-1.5,7.9c1,3.7,17.5,1.6,20.6,1.6,7.6,0,14.9.5,22.4.9s5.7-2.4,8,1.3Z"></path>
  <path class="st5" d="M37.9,212.3c-.5,2.9.6,3.1,2.4,4.5,54.4,42.4,114,78.7,166.6,123.4,2.5,2.1,3.7,5.3,6.4,7.5s11.2,4,9,7.4c-1.8,2.9-9-.8-11.2-.9-8.7-.5-23.2,3.9-33,.9h-19.8c-40.3-26.7-80.8-53.4-120.6-81-3.9-2.7-9-5.6-12.8-8.5-14.7-11.5-23.2-27.9-13.4-45.9s8.9-9.2,13.4-14.9c1.8,1.4,9.1,4.9,12.8,7.5Z"></path>
  <path class="st5" d="M480.6,204.8c18.6,12.4,26.2,33.1,10.7,51.7-1.3,1.5-10,10.7-10.7,11.2s-4.2,1.6-6.4,3.2c-41.4,29.2-84.7,56.2-127,84.2l-9.1-1.1c-14.6,1.1-29,.8-43.8.2-.7,0-12.4,1.3-9.1-2.3s8.4-1.8,10.2-3.1,2.3-5.7,4.7-8.1c10.3-11,32.7-27,45.4-36.7,33.5-25.7,68.9-49.1,102.8-74.2,3.5-2.6,8.6-6,11.6-8.7s2.9-1.7,2.4-4.5c5.5-3.8,13.3-8,18.1-11.7Z"></path>
  <path class="st3" d="M25.1,265.6c3.8,3,8.9,5.8,12.8,8.5l2.1,4.8c28.4,23.2,61.5,43.7,88.6,68.2s11.8,11.2,12.3,12.3c.8,1.8-.7,6,.5,8.5-16.8,2-34.9-3.4-51.2,2.1-19.9-13.5-42.3-25.5-61.8-40s-23.9-21.6-19.9-41,12.1-14.9,16.6-23.4Z"></path>
  <path class="st3" d="M480.6,267.7c22.7,12.7,25.4,40.1,5.2,56.9-18.9,15.8-46.2,30.2-67.1,44.3-2.3-3.7-5.5-1.2-8-1.3-7.5-.4-14.8-.8-22.4-.9s-19.7,2.1-20.6-1.6,1.1-7.1,1.5-7.9c2.2-5,29.1-26,35.2-30.9,20.6-16.5,43.8-31.3,63.9-48,2.4-2,6.4-3.9,5.9-7.4,2.2-1.6,5.9-2.8,6.4-3.2Z"></path>
  <path class="st4" d="M359,167.5c7.1,16.8-9.1,32.4-21,41.4-18,13.6-39,25.3-57.6,38.3-1.6.2-3.6-1.3-5-2.1-29-16.2-56.3-41.6-86.1-57.4l-49-33.6-1.1-2.6c32.5-18.5,67.2-56.3,108-48.8,22.5,4.2,45.7,20.8,31.2,45.5,22.6-10,51.3-9.5,70.4,7.5,2.1,1.9,9.2,9.6,10.1,11.8ZM172.3,150.5l45.2,30.7c14.2-10.5,65.9-34.2,37.5-55.2-28.7-21.2-58.8,11.3-82.7,24.5ZM233.1,193.1l49.4,31.8c11.7-9.8,46.8-26.3,51.1-40.6,3.5-11.9-4.8-19.6-14.8-24.1-31.1-14.2-59.9,16.1-84.6,30.3-1,.4-1.6,1.9-1.1,2.6Z"></path>
  <path class="st3" d="M168.1,298.6c33.3,22,50.2,42.3,94.5,39.5,30.3-1.9,52.5-23.8,76.2-39.5,41.2-27.3,83.1-53.9,123.8-82.1.5,2.8-.8,3.1-2.4,4.5-3,2.7-8.1,6.1-11.6,8.7-33.9,25.1-69.3,48.6-102.8,74.2s-35.1,25.7-45.4,36.7c-2.3,2.5-2.7,6.8-4.7,8.1s-9,1.8-10.2,3.1c-3.4,3.6,8.4,2.3,9.1,2.3,14.8.6,29.2.9,43.8-.2l9.1,1.1c-36.4,24.2-62.5,53.2-111,44.3-27.5-5.1-54.6-28.9-77.8-44.3h19.8c9.8,2.9,24.3-1.5,33-1s9.4,3.8,11.2.9c2.2-3.4-6.3-5.2-9-7.4s-3.9-5.3-6.4-7.5c-52.7-44.7-112.3-81-166.6-123.4-1.8-1.4-2.9-1.6-2.4-4.5,42.6,29.7,86.9,57.8,130.2,86.3Z"></path>
  <path class="st5" d="M338.7,298.6c-23.7,15.7-46,37.6-76.2,39.5-44.2,2.8-61.1-17.5-94.5-39.5h170.7Z"></path>
  <path class="st0" d="M233.1,193.1c-.5-.7.1-2.2,1.1-2.6,24.8-14.2,53.5-44.5,84.6-30.3,10,4.5,18.3,12.2,14.8,24.1-4.3,14.3-39.4,30.8-51.1,40.6l-49.4-31.8Z"></path>
  <path class="st1" d="M172.3,150.5c23.8-13.2,54-45.8,82.7-24.5,28.3,21-23.3,44.7-37.5,55.2l-45.2-30.7Z"></path>
  <path class="st1" d="M12.3,188.8c-.2-.4-1.8-.9-2.4-2.4-1.2-3-3.6-17.6-3-20.3s1.6-.7,2-1.6c4.4-10.7,10-18.5,20.7-23.9,59.4-37.1,116.6-83.2,176.4-119,26.5-15.9,55.9-17.9,84.6-6.1l195.5,130.6c5.4,6.5,10.8,11.5,12.5,20.3l-139.8,1.1c-.9-2.1-8-9.9-10.1-11.8-19.1-16.9-47.9-17.5-70.4-7.5,14.5-24.7-8.7-41.4-31.2-45.5-40.8-7.5-75.5,30.3-108,48.8l1.1,2.6,49,33.6c-50.4-2.2-100.6-.5-151-.2-7.7,0-19.2-3.4-26.1,1.3Z"></path>
</svg><style>@media (prefers-color-scheme: light) { :root { filter: none; } }
@media (prefers-color-scheme: dark) { :root { filter: none; } }
</style></svg>